<svg id="图层_1" data-name="图层 1" xmlns="http://www.w3.org/2000/svg" xmlns:xlink="http://www.w3.org/1999/xlink" viewBox="0 0 60 64.07"><defs><style>.cls-1{fill:url(#未命名的渐变_8);}.cls-2{fill:url(#未命名的渐变_2);}.cls-3{fill:#c7cdd8;}.cls-4{fill:url(#未命名的渐变_3);}.cls-5{fill:#d31616;}.cls-6{fill:#cf4055;}.cls-7{fill:url(#未命名的渐变_5);}.cls-8{fill:url(#未命名的渐变_6);}.cls-9{fill:#adb3c4;}.cls-10{fill:#42455e;}</style><linearGradient id="未命名的渐变_8" x1="3" y1="29" x2="61" y2="29" gradientUnits="userSpaceOnUse"><stop offset="0" stop-color="#9dd5df"/><stop offset="1" stop-color="#c3e1f5"/></linearGradient><linearGradient id="未命名的渐变_2" x1="32" y1="15" x2="32" y2="23" gradientTransform="matrix(1, 0, 0, -1, 0, 66)" gradientUnits="userSpaceOnUse"><stop offset="0" stop-color="#d4d8e1"/><stop offset="1" stop-color="#f3f4f5"/></linearGradient><linearGradient id="未命名的渐变_3" x1="32" y1="3" x2="32" y2="15" gradientTransform="matrix(1, 0, 0, -1, 0, 66)" gradientUnits="userSpaceOnUse"><stop offset="0" stop-color="#949aaf"/><stop offset="1" stop-color="#c6ccda"/></linearGradient><linearGradient id="未命名的渐变_5" x1="13" y1="47" y2="47" xlink:href="#未命名的渐变_2"/><linearGradient id="未命名的渐变_6" y1="47" x2="51" y2="47" xlink:href="#未命名的渐变_2"/></defs><title>book1111</title><path class="cls-1" d="M55,7h2a4,4,0,0,1,4,4V47a4,4,0,0,1-4,4H7a4,4,0,0,1-4-4V11A4,4,0,0,1,7,7H9" transform="translate(-2 0.07)"/><path class="cls-2" d="M3,43H61v4a4,4,0,0,1-4,4H7a4,4,0,0,1-4-4V43Z" transform="translate(-2 0.07)"/><path class="cls-3" d="M61,45v2a4,4,0,0,1-4,4H7a4,4,0,0,1-4-4V45a4,4,0,0,0,4,4H57A4,4,0,0,0,61,45Z" transform="translate(-2 0.07)"/><path class="cls-4" d="M42,63H22a3.27,3.27,0,0,0,2.22-.86C25.58,60.94,25.29,60.2,26,51H38c.29,3.78.14,1.79.7,9A3.31,3.31,0,0,0,42,63Z" transform="translate(-2 0.07)"/><path class="cls-5" d="M13,5H9V37H55V5H51" transform="translate(-2 0.07)"/><path class="cls-6" d="M13,35H9v2H55V35H51" transform="translate(-2 0.07)"/><path class="cls-7" d="M32,5V37a13.67,13.67,0,0,0-9.66-4H13V1h9.34A13.67,13.67,0,0,1,32,5Z" transform="translate(-2 0.07)"/><path class="cls-8" d="M32,5V37a13.67,13.67,0,0,1,9.66-4H51V1H41.66A13.67,13.67,0,0,0,32,5Z" transform="translate(-2 0.07)"/><path class="cls-3" d="M32,34v3a13.67,13.67,0,0,0-9.66-4H13V30h9.34A13.67,13.67,0,0,1,32,34Z" transform="translate(-2 0.07)"/><path class="cls-3" d="M51,30v3H41.66A13.67,13.67,0,0,0,32,37V34a13.67,13.67,0,0,1,9.66-4Z" transform="translate(-2 0.07)"/><polygon class="cls-9" points="36.23 54.07 23.77 54.07 24 51.07 36 51.07 36.23 54.07"/><rect class="cls-10" x="1" y="41.07" width="58" height="2"/><path d="M57,6H56V5a1,1,0,0,0-1-1H52V1a1,1,0,0,0-1-1C42,0,37.12-.86,32,3.65,26.85-.88,22,0,13,0a1,1,0,0,0-1,1V4H9A1,1,0,0,0,8,5V6H7a5,5,0,0,0-5,5V47a5,5,0,0,0,5,5H24.92l-.62,7.92A2.31,2.31,0,0,1,22,62H20a1,1,0,0,0,0,2H44a1,1,0,0,0,0-2H42a2.29,2.29,0,0,1-2.3-2.07L39.08,52H57a5,5,0,0,0,5-5V11A5,5,0,0,0,57,6ZM54,6V36H34.84c3.95-2.54,6.81-2,16.16-2a1,1,0,0,0,1-1V6ZM50,2V32c-8.16,0-12.26-.66-17,2.83V5.42A12.55,12.55,0,0,1,41.66,2ZM14,2c7.83,0,12.48-.82,17,3.42V34.83C26.16,31.27,21.91,32,14,32ZM10,6h2V33a1,1,0,0,0,1,1c9.28,0,12.21-.54,16.16,2H10ZM7,8H8V37a1,1,0,0,0,1,1H55a1,1,0,0,0,1-1V8h1a3,3,0,0,1,3,3V42H4V11A3,3,0,0,1,7,8ZM38.35,62H25.64c.77-1.21.61-1.38,1.29-10H37.08C37.68,59.84,37.52,60.69,38.35,62ZM60,47a3,3,0,0,1-3,3H7a3,3,0,0,1-3-3V44H60Z" transform="translate(-2 0.07)"/><path class="cls-5" d="M31,48h2a1,1,0,0,0,0-2H31a1,1,0,0,0,0,2Z" transform="translate(-2 0.07)"/><path d="M18,8h9a1,1,0,0,0,0-2H18a1,1,0,0,0,0,2Z" transform="translate(-2 0.07)"/><path d="M18,13h9a1,1,0,0,0,0-2H18a1,1,0,0,0,0,2Z" transform="translate(-2 0.07)"/><path d="M18,18h9a1,1,0,0,0,0-2H18a1,1,0,0,0,0,2Z" transform="translate(-2 0.07)"/><path d="M18,23h9a1,1,0,0,0,0-2H18a1,1,0,0,0,0,2Z" transform="translate(-2 0.07)"/><path d="M18,28h9a1,1,0,0,0,0-2H18a1,1,0,0,0,0,2Z" transform="translate(-2 0.07)"/><path d="M37,8h9a1,1,0,0,0,0-2H37a1,1,0,0,0,0,2Z" transform="translate(-2 0.07)"/><path d="M37,13h9a1,1,0,0,0,0-2H37a1,1,0,0,0,0,2Z" transform="translate(-2 0.07)"/><path d="M37,18h9a1,1,0,0,0,0-2H37a1,1,0,0,0,0,2Z" transform="translate(-2 0.07)"/><path d="M37,23h9a1,1,0,0,0,0-2H37a1,1,0,0,0,0,2Z" transform="translate(-2 0.07)"/><path d="M37,28h9a1,1,0,0,0,0-2H37a1,1,0,0,0,0,2Z" transform="translate(-2 0.07)"/></svg>