<svg id="图层_1" data-name="图层 1" xmlns="http://www.w3.org/2000/svg" xmlns:xlink="http://www.w3.org/1999/xlink" viewBox="0 0 64 56"><defs><style>.cls-1{fill:url(#未命名的渐变);}.cls-2{fill:#d31616;}.cls-3{fill:url(#未命名的渐变_2);}.cls-4{fill:url(#未命名的渐变_3);}.cls-5{fill:#42455e;}.cls-6{fill:#575f7c;}.cls-7{fill:url(#未命名的渐变_4);}</style><linearGradient id="未命名的渐变" x1="32" y1="7.36" x2="32" y2="61.36" gradientTransform="matrix(1, 0, 0, -1, 0, 62)" gradientUnits="userSpaceOnUse"><stop offset="0" stop-color="#9dd5df"/><stop offset="1" stop-color="#c3e1f5"/></linearGradient><linearGradient id="未命名的渐变_2" x1="32" y1="7" x2="32" y2="17" gradientTransform="matrix(1, 0, 0, -1, 0, 62)" gradientUnits="userSpaceOnUse"><stop offset="0" stop-color="#949aaf"/><stop offset="1" stop-color="#c6ccda"/></linearGradient><linearGradient id="未命名的渐变_3" x1="32" y1="25.36" x2="32" y2="41.14" gradientTransform="matrix(1, 0, 0, -1, 0, 66)" gradientUnits="userSpaceOnUse"><stop offset="0" stop-color="#474f72"/><stop offset="1" stop-color="#878c9f"/></linearGradient><linearGradient id="未命名的渐变_4" y1="36" y2="54" gradientTransform="matrix(1, 0, 0, -1, 0, 62)" xlink:href="#未命名的渐变_3"/></defs><title>video111</title><rect class="cls-1" x="1" y="0.64" width="62" height="54"/><rect class="cls-2" x="1" y="42" width="62" height="13"/><rect class="cls-3" x="1" y="45" width="62" height="10"/><path class="cls-4" d="M44,24.86V34.5c0,2.26-5.37,6.14-12,6.14S20,36.76,20,34.5V24.86Z" transform="translate(0 -4)"/><path class="cls-5" d="M44,31.64V34.5c0,2.26-5.37,6.14-12,6.14S20,36.76,20,34.5V31.64c0,2.26,5.37,6.14,12,6.14S44,33.9,44,31.64Z" transform="translate(0 -4)"/><polygon class="cls-6" points="44 20.86 44 23.04 32 28.18 20 23.04 20 20.86 44 20.86"/><polygon class="cls-7" points="32 26 11 17 32 8 53 17 32 26"/><path class="cls-2" d="M49.55,39.25,50,42H46l.45-2.75a1.57,1.57,0,0,1,3.1,0Z" transform="translate(0 -4)"/><path d="M63,4H1A1,1,0,0,0,0,5V59a1,1,0,0,0,1,1H63a1,1,0,0,0,1-1V5A1,1,0,0,0,63,4ZM62,6V48H2V6Zm0,52H2V50H62Z" transform="translate(0 -4)"/><path d="M19,25.52v9c0,3.15,6.12,7.14,13,7.14s13-4,13-7.14v-9l2-.86V37.12a2.6,2.6,0,0,0-1.54,2C44.73,43.58,44.21,43,50,43a1,1,0,0,0,1-1,1,1,0,0,0,0-.17c-.4-2.45-.34-4-2-4.72V23.8l4.39-1.88a1,1,0,0,0,.53-1.31,1,1,0,0,0-.53-.53c-23-9.85-21.22-9.24-21.78-9C8.91,20.81,10,20.06,10,21S9.9,21.62,19,25.52ZM47.18,41c.24-1.48.19-1.87.6-2a.56.56,0,0,0,.44,0c.38.16.34.4.6,2ZM43,34.5c0,1.49-4.76,5.14-11,5.14S21,36,21,34.5V26.37c11.48,4.93,10.84,4.79,11.39,4.55L43,26.37ZM32,13.09,50.46,21l-2.35,1-16-2.14a1,1,0,1,0-.26,2L44.5,23.55,32,28.91,13.54,21Z" transform="translate(0 -4)"/><path class="cls-2" d="M4.47,55.85a1,1,0,0,0,1,0C7.43,54.9,8,54.79,8,54s-.65-.94-2.55-1.89A1,1,0,0,0,4,53C4,55.08,3.88,55.48,4.47,55.85Z" transform="translate(0 -4)"/><path d="M11,55H34a1,1,0,0,0,2,0V53a1,1,0,0,0-2,0H11a1,1,0,0,0,0,2Z" transform="translate(0 -4)"/><path d="M38,55H59a1,1,0,0,0,0-2H38a1,1,0,0,0,0,2Z" transform="translate(0 -4)"/></svg>